HIERARCHY
ROOT Hips
{
	OFFSET 0.00000 0.00000 0.00000
	CHANNELS 6 Xposition Yposition Zposition Zrotation Yrotation Xrotation 
	JOINT LHipJoint
	{
		OFFSET 0 0 0
		CHANNELS 3 Zrotation Yrotation Xrotation
		JOINT LeftHip
		{
			OFFSET 1.37590 -1.78394 0.89329
			CHANNELS 3 Zrotation Yrotation Xrotation
			JOINT LeftKnee
			{
				OFFSET 2.47928 -6.81178 0.00000
				CHANNELS 3 Zrotation Yrotation Xrotation
				JOINT LeftAnkle
				{
					OFFSET 2.63345 -7.23535 0.00000
					CHANNELS 3 Zrotation Yrotation Xrotation
					JOINT LeftToe
					{
						OFFSET 0.23938 -0.65768 2.27012
						CHANNELS 3 Zrotation Yrotation Xrotation
						End Site
						{
							OFFSET 0.00000 -0.00000 1.18363
						}
					}
				}
			}
		}
	}
	JOINT RHipJoint
	{
		OFFSET 0 0 0
		CHANNELS 3 Zrotation Yrotation Xrotation
		JOINT RightHip
		{
			OFFSET -1.33617 -1.78394 0.89329
			CHANNELS 3 Zrotation Yrotation Xrotation
			JOINT RightKnee
			{
				OFFSET -2.56922 -7.05888 0.00000
				CHANNELS 3 Zrotation Yrotation Xrotation
				JOINT RightAnkle
				{
					OFFSET -2.56568 -7.04915 0.00000
					CHANNELS 3 Zrotation Yrotation Xrotation
					JOINT RightToe
					{
						OFFSET -0.27533 -0.75646 2.18105
						CHANNELS 3 Zrotation Yrotation Xrotation
						End Site
						{
							OFFSET -0.00000 -0.00000 1.15233
						}
					}
				}
			}
		}
	}
	JOINT lowerback
	{
		OFFSET 0 0 0
		CHANNELS 3 Zrotation Yrotation Xrotation
		JOINT Chest
		{
			OFFSET 0.06190 2.15152 -0.00935
			CHANNELS 3 Zrotation Yrotation Xrotation
			JOINT Chest2
			{
				OFFSET 0.06334 2.15332 0.00872
				CHANNELS 3 Zrotation Yrotation Xrotation
				JOINT lowerneck
				{
					OFFSET 0 0 0
					CHANNELS 3 Zrotation Yrotation Xrotation
					JOINT Neck
					{
						OFFSET -0.04202 1.66908 0.23524
						CHANNELS 3 Zrotation Yrotation Xrotation
						JOINT Head
						{
							OFFSET 0.07510 1.69357 -0.24440
							CHANNELS 3 Zrotation Yrotation Xrotation
							End Site
							{
								OFFSET 0.02556 1.71719 -0.11000
							}
						}
					}
				}
				JOINT LeftCollar
				{
					OFFSET 0 0 0
					CHANNELS 3 Zrotation Yrotation Xrotation
					JOINT LeftShoulder
					{
						OFFSET 3.67168 1.26306 -0.41342
CHANNELS 3 Zrotation Xrotation Yrotation
						JOINT LeftElbow
						{
OFFSET 0 -4.685100 -0.000000
CHANNELS 3 Zrotation Xrotation Yrotation
							JOINT LeftWrist
							{
OFFSET 0 -3.396260 -0.000000
CHANNELS 3 Zrotation Xrotation Yrotation
								JOINT lhand
								{
									OFFSET 0 0 0
CHANNELS 3 Zrotation Xrotation Yrotation
									JOINT LFingers
									{
OFFSET 0 -0.486080 -0.000000
CHANNELS 3 Zrotation Xrotation Yrotation
										End Site
										{
OFFSET 0 -0.391890 -0.000000
										}
									}
								}
								JOINT LThumb
								{
OFFSET 0 0.000000 0.000000
CHANNELS 3 Zrotation Xrotation Yrotation
									End Site
									{
OFFSET 0 -0.397870 0.397870
									}
								}
							}
						}
					}
				}
				JOINT RightCollar
				{
					OFFSET 0 0 0
					CHANNELS 3 Zrotation Yrotation Xrotation
					JOINT RightShoulder
					{
						OFFSET -3.04136 1.42992 -0.76390
CHANNELS 3 Zrotation Xrotation Yrotation
						JOINT RightElbow
						{
OFFSET 0 -5.555760 -0.000000
CHANNELS 3 Zrotation Xrotation Yrotation
							JOINT RightWrist
							{
OFFSET 0 -3.327740 -0.000000
CHANNELS 3 Zrotation Xrotation Yrotation
								JOINT rhand
								{
									OFFSET 0 0 0
CHANNELS 3 Zrotation Xrotation Yrotation
									JOINT RFingers
									{
OFFSET 0 -0.507630 -0.000000
CHANNELS 3 Zrotation Xrotation Yrotation
										End Site
										{
OFFSET 0 -0.409260 -0.000000
										}
									}
								}
								JOINT RThumb
								{
OFFSET 0 0.000000 0.000000
CHANNELS 3 Zrotation Xrotation Yrotation
									End Site
									{
OFFSET 0 -0.415510 0.415510
									}
								}
							}
						}
					}
				}
			}
		}
	}
}
MOTION
Frames: 7
Frame Time: 0.008333333333333333
6.674501 17.898160 5.414487 -643.903127 -88.656788 641.761439 0.000000 0.000000 0.000000 -26.401676 -2.460718 9.294319 0.717444 5.412750 15.089707 0.566413 -5.756948 -13.424138 0.001207 0.206181 0.566476 0.000000 0.000000 0.000000 3.939894 11.198809 -91.323143 -16.279116 -19.662354 79.060913 -39.111948 -3.431236 -159.542566 -1.278314 -7.165146 20.205598 -4.971662 -4.313131 7.551242 1.928452 -6.130031 -0.975988 5.455596 -2.891307 -4.510348 -3.734035 -0.959532 -21.563682 5.717918 -1.438946 17.175262 2.380324 -0.294143 9.004871 0.000000 0.000000 0.000000 4.742306 -42.143498 -41.908755 36.000523 -45.513197 15.522979 13.039068 8.184048 -9.287062 0.000000 0.000000 0.000000 -7.125000 0.000000 0.000000 -12.052856 39.231628 -1.742700 0.000000 0.000000 0.000000 -12.042145 25.753361 -11.909342 -7.094813 -12.075132 -0.751329 -10.697476 28.067424 15.503972 0.000000 0.000000 0.000000 7.125000 0.000000 0.000000 15.731219 45.142981 -0.056793
6.525051 17.890079 5.398685 -642.107055 -88.473315 640.258062 0.000000 0.000000 0.000000 -26.562667 -2.399856 9.493504 0.718174 5.415522 15.097642 0.569254 -5.899954 -13.466624 0.000124 0.007394 0.020335 0.000000 0.000000 0.000000 4.006948 11.294543 -90.888278 -17.093203 -19.793699 81.472167 -40.022627 -17.964450 -153.813505 -1.238630 -7.057115 19.884728 -5.126591 -4.337431 7.452024 1.897368 -6.173880 -1.034751 5.506611 -2.908390 -4.498306 -3.719443 -0.940054 -21.667342 5.708777 -1.405895 17.084766 2.378721 -0.276933 8.989861 0.000000 0.000000 0.000000 4.837070 -42.424990 -41.693073 36.343312 -45.747670 15.767949 13.045687 8.327742 -9.292365 0.000000 0.000000 0.000000 -7.125000 0.000000 0.000000 -12.048297 39.237518 -1.740291 0.000000 0.000000 0.000000 -11.956584 25.823029 -12.308363 -7.045686 -11.994329 -0.741057 -10.417422 28.357905 15.366892 0.000000 0.000000 0.000000 7.125000 0.000000 0.000000 15.937395 44.976769 0.009488
6.374522 17.880928 5.381938 -640.235543 -88.264673 638.715023 0.000000 0.000000 0.000000 -26.728942 -2.321922 9.669742 0.715888 5.406914 15.072856 0.568678 -6.076773 -13.472624 0.001014 -0.199341 -0.547739 0.000000 0.000000 0.000000 4.086753 11.367463 -90.253285 -17.974285 -19.900352 84.067468 -42.499947 -32.272569 -147.038647 -1.204889 -6.963865 19.608368 -5.310259 -4.355931 7.315259 1.861372 -6.210630 -1.102608 5.564545 -2.921568 -4.473036 -3.707945 -0.924865 -21.764176 5.699796 -1.377720 16.983997 2.376833 -0.262249 8.970381 0.000000 0.000000 0.000000 4.909518 -42.623965 -41.506123 36.652133 -45.956432 15.989545 13.068152 8.462934 -9.294798 0.000000 0.000000 0.000000 -7.125000 0.000000 0.000000 -12.029773 39.241672 -1.736275 0.000000 0.000000 0.000000 -11.832159 25.845235 -12.438862 -7.039214 -11.983751 -0.739776 -10.148258 28.334545 15.232539 0.000000 0.000000 0.000000 7.125000 0.000000 0.000000 16.134283 44.814952 0.075735
6.222309 17.870417 5.364249 -638.447396 -88.046083 637.290686 0.000000 0.000000 0.000000 -26.879794 -2.230862 9.823202 0.710414 5.386909 15.015417 0.564568 -6.292320 -13.443663 0.004451 -0.427272 -1.173982 0.000000 0.000000 0.000000 4.192274 11.423854 -89.417418 -18.771907 -19.963253 86.407161 -47.651226 -46.003164 -137.599857 -1.177353 -6.886793 19.380487 -5.505858 -4.368032 7.127293 1.822750 -6.237198 -1.180924 5.620884 -2.929988 -4.430224 -3.696480 -0.914730 -21.840029 5.691006 -1.356663 16.871076 2.373666 -0.251477 8.943439 0.000000 0.000000 0.000000 4.957746 -42.717827 -41.358342 36.931198 -46.142903 16.190438 13.095741 8.565514 -9.290234 0.000000 0.000000 0.000000 -7.125000 0.000000 0.000000 -12.005349 39.239169 -1.733355 0.000000 0.000000 0.000000 -11.663529 25.826127 -12.270328 -7.077371 -12.046459 -0.747672 -9.910686 27.983716 15.113267 0.000000 0.000000 0.000000 7.125000 0.000000 0.000000 16.307114 44.671834 0.135848
6.067651 17.858757 5.345227 -636.928723 -87.838833 636.171396 0.000000 0.000000 0.000000 -26.991429 -2.138117 9.958431 0.702482 5.357218 14.930290 0.557156 -6.548533 -13.384598 0.010992 -0.670783 -1.843467 0.000000 0.000000 0.000000 4.339876 11.464117 -88.389393 -19.350902 -19.989355 88.101710 -57.333069 -58.320087 -121.864401 -1.169188 -6.863639 19.312012 -5.692890 -4.374357 6.889946 1.788324 -6.252111 -1.271786 5.671648 -2.933081 -4.374548 -3.685586 -0.911026 -21.892697 5.682163 -1.344906 16.754149 2.369136 -0.245475 8.911510 0.000000 0.000000 0.000000 4.979668 -42.682469 -41.260794 37.197365 -46.318798 16.382628 13.118226 8.617231 -9.279369 0.000000 0.000000 0.000000 -7.125000 0.000000 0.000000 -11.984007 39.230109 -1.732874 0.000000 0.000000 0.000000 -11.457527 25.776038 -11.822144 -7.155750 -12.175256 -0.764184 -9.718348 27.344305 15.012395 0.000000 0.000000 0.000000 7.125000 0.000000 0.000000 16.445417 44.552209 0.187076
5.910191 17.845942 5.325135 -635.787508 -87.656939 635.461339 0.000000 0.000000 0.000000 -27.055407 -2.059513 10.084474 0.692811 5.320926 14.826260 0.547112 -6.838517 -13.304564 0.021102 -0.930930 -2.558930 0.000000 0.000000 0.000000 4.537097 11.486987 -87.185913 -19.636650 -19.996784 88.937488 -11.432907 -67.101050 -93.562502 -1.177266 -6.886559 19.379709 -5.854354 -4.377997 6.601363 1.761507 -6.257385 -1.369338 5.710838 -2.932831 -4.300083 -3.674211 -0.913023 -21.941381 5.673695 -1.341756 16.641251 2.363535 -0.243528 8.880815 0.000000 0.000000 0.000000 4.976505 -42.533306 -41.214459 37.452517 -46.485863 16.567416 13.142294 8.613379 -9.271511 0.000000 0.000000 0.000000 -7.125000 0.000000 0.000000 -11.961845 39.224067 -1.731432 0.000000 0.000000 0.000000 -11.218931 25.682545 -11.169598 -7.265229 -12.354875 -0.787472 -9.583242 26.511724 14.917456 0.000000 0.000000 0.000000 7.125000 0.000000 0.000000 16.534630 44.444950 0.233169
5.749536 17.831910 5.304034 -635.116290 -87.507226 635.244900 0.000000 0.000000 0.000000 -27.069899 -2.001881 10.213420 0.681461 5.278097 14.703449 0.534408 -7.156628 -13.203698 0.034450 -1.193307 -3.280921 0.000000 0.000000 0.000000 4.785915 11.486027 -85.806271 -19.587773 -19.995793 88.794588 47.829994 -68.417622 -53.793932 -1.207877 -6.972201 19.633101 -5.983444 -4.380809 6.269656 1.745836 -6.255414 -1.474570 5.739335 -2.930250 -4.212321 -3.665066 -0.921560 -21.987346 5.664513 -1.347566 16.541044 2.356984 -0.246024 8.854563 0.000000 0.000000 0.000000 4.946540 -42.263285 -41.225674 37.696481 -46.644250 16.744624 13.168607 8.555315 -9.286171 0.000000 0.000000 0.000000 -7.125000 0.000000 0.000000 -11.942438 39.240723 -1.723521 0.000000 0.000000 0.000000 -10.955514 25.553710 -10.335862 -7.405214 -12.584139 -0.817686 -9.512595 25.528959 14.824209 0.000000 0.000000 0.000000 7.125000 0.000000 0.000000 16.567202 44.346795 0.274947
